<svg width="12" height="12" viewBox="0 0 12 12" fill="none" xmlns="http://www.w3.org/2000/svg">
<path d="M11.7963 10.4417C11.9568 10.6648 12.0224 10.86 11.9933 11.0274C11.9787 11.1947 11.9568 11.3341 11.9276 11.4457C11.8839 11.5684 11.7745 11.6744 11.5994 11.7636C11.439 11.8417 11.2566 11.9031 11.0524 11.9477C10.7899 12.0035 10.5711 12.0146 10.396 11.9812C10.1772 11.9477 9.99491 11.8919 9.84904 11.8138C9.76153 11.7581 9.6813 11.7079 9.60837 11.6632C9.53543 11.6075 9.4625 11.5573 9.38957 11.5126C9.31664 11.4569 9.251 11.4067 9.19265 11.362C9.1343 11.3174 9.09054 11.2728 9.06137 11.2282C9.0322 11.1835 9.00303 11.1557 8.97385 11.1445C8.95927 11.1222 8.94468 11.1055 8.93009 11.0943L6.02008 7.88147L3.13194 11.0943C3.11735 11.1055 3.09547 11.1222 3.0663 11.1445C3.05171 11.1557 3.02254 11.1835 2.97878 11.2282C2.94961 11.2728 2.90585 11.3174 2.8475 11.362C2.80374 11.4067 2.75269 11.4569 2.69434 11.5126C2.62141 11.5573 2.54118 11.6075 2.45367 11.6632C2.36615 11.7079 2.28592 11.7581 2.21299 11.8138C2.12547 11.8585 2.03066 11.8919 1.92855 11.9142C1.84103 11.9366 1.75351 11.9589 1.66599 11.9812C1.47637 12.0146 1.27216 12.0035 1.05336 11.9477C0.601174 11.8696 0.287563 11.7023 0.112525 11.4457C0.0250055 11.3118 -0.0114609 11.1724 0.0031257 11.0274C0.0177122 10.8712 0.0614719 10.715 0.134405 10.5588C0.221924 10.4026 0.316736 10.252 0.418842 10.107C0.535535 9.962 0.652227 9.82255 0.768919 9.68869C0.827266 9.63291 0.878319 9.58271 0.922078 9.53809C0.980424 9.49346 1.03877 9.44326 1.09712 9.38748C1.28674 9.19784 1.46907 9.00819 1.64411 8.81855C1.81915 8.61774 2.00878 8.40579 2.21299 8.18267L4.24781 5.92365L1.25028 2.61042L0.987718 2.32595C0.929371 2.25902 0.871025 2.19766 0.812679 2.14189C0.754333 2.08611 0.695987 2.01917 0.637641 1.94108C0.579294 1.88531 0.520948 1.82395 0.462602 1.75702C0.404256 1.69008 0.353203 1.61199 0.309443 1.52275C0.265684 1.45581 0.221924 1.39446 0.178164 1.33868C0.148991 1.27174 0.119818 1.19366 0.090645 1.10441C0.0468853 0.970542 0.0322988 0.847829 0.0468853 0.736273C0.090645 0.591249 0.185458 0.468537 0.331323 0.368137C0.389669 0.312358 0.455309 0.267735 0.528241 0.234269C0.615761 0.200802 0.695987 0.167335 0.768919 0.133868C0.914785 0.0892454 1.04606 0.0557782 1.16276 0.0334665C1.27945 0.0111555 1.40343 0 1.53471 0C1.79727 0.0111555 2.04524 0.0836673 2.27863 0.217535C2.57036 0.362558 2.83292 0.541049 3.0663 0.753007C3.16841 0.875719 3.27051 0.992853 3.37262 1.10441C3.47472 1.20481 3.58412 1.31079 3.70082 1.42235L3.7227 1.48928C4.08736 1.85742 4.41556 2.2144 4.70729 2.56022C5.0136 2.89489 5.3491 3.25187 5.71376 3.63117C5.77211 3.68694 5.82316 3.74272 5.86692 3.7985C5.91068 3.85428 5.96173 3.91006 6.02008 3.96584C6.07842 3.91006 6.12948 3.85428 6.17324 3.7985C6.21699 3.74272 6.26805 3.68694 6.32639 3.63117C6.66188 3.25187 6.98279 2.89489 7.28911 2.56022C7.61001 2.2144 7.9455 1.85742 8.29558 1.48928L8.33934 1.42235C8.45603 1.31079 8.56543 1.20481 8.66753 1.10441C8.78423 0.992853 8.89363 0.875719 8.99573 0.753007C9.22912 0.541049 9.49167 0.362558 9.78341 0.217535C10.0022 0.0836673 10.2502 0.0111555 10.5273 0C10.7607 0 11.0087 0.0446227 11.2712 0.133868C11.4463 0.211957 11.5776 0.290047 11.6651 0.368137C11.8401 0.468537 11.9495 0.591249 11.9933 0.736273C12.0079 0.847829 11.9933 0.970542 11.9495 1.10441C11.9203 1.19366 11.8839 1.27174 11.8401 1.33868C11.8109 1.39446 11.7599 1.45581 11.6869 1.52275C11.5994 1.69008 11.5046 1.82953 11.4025 1.94108C11.3442 2.01917 11.2858 2.08611 11.2275 2.14189C11.1691 2.19766 11.1181 2.25902 11.0743 2.32595L10.8118 2.61042L7.79234 5.92365L9.82717 8.18267L11.0087 9.45442C11.14 9.62175 11.2712 9.78351 11.4025 9.93969C11.5338 10.0959 11.6651 10.2632 11.7963 10.4417Z" fill="white"/>
</svg>
